<?xml version="1.0" encoding="UTF-8"?>
<svg xmlns="http://www.w3.org/2000/svg" xmlns:xlink="http://www.w3.org/1999/xlink" width="2000" height="2000" viewBox="0 0 2000 2000">
<defs>
<clipPath id="clip-0">
<path clip-rule="nonzero" d="M 480 268 L 1520 268 L 1520 1309 L 480 1309 Z M 480 268 "/>
</clipPath>
<clipPath id="clip-1">
<path clip-rule="nonzero" d="M 1479.128906 586.199219 C 1452.941406 524.269531 1415.449219 468.660156 1367.699219 420.921875 C 1319.949219 373.171875 1264.339844 335.679688 1202.421875 309.480469 C 1138.300781 282.359375 1070.191406 268.609375 1000 268.609375 C 929.808594 268.609375 861.710938 282.359375 797.589844 309.480469 C 735.671875 335.679688 680.058594 373.171875 632.308594 420.921875 C 584.558594 468.660156 547.070312 524.269531 520.878906 586.199219 C 493.761719 650.320312 480 718.421875 480 788.609375 C 480 858.800781 493.761719 926.898438 520.878906 991.03125 C 547.070312 1052.949219 584.558594 1108.558594 632.308594 1156.308594 C 680.058594 1204.058594 735.671875 1241.550781 797.589844 1267.738281 C 846.199219 1288.300781 897.101562 1301.179688 949.460938 1306.199219 C 966.171875 1307.808594 983.019531 1308.609375 1000 1308.609375 C 1070.191406 1308.609375 1138.300781 1294.859375 1202.421875 1267.738281 C 1264.339844 1241.550781 1319.949219 1204.058594 1367.699219 1156.308594 C 1404.929688 1119.078125 1435.921875 1077.070312 1460.191406 1031.019531 C 1454.28125 1026.820312 1443.320312 1019.910156 1425.148438 1011.28125 C 1378.488281 989.101562 1284.289062 955.570312 1105.960938 927.511719 C 810.480469 881.019531 661.980469 881.019531 781.980469 812.019531 C 781.980469 812.019531 589.988281 815.019531 600.488281 876.519531 C 610.988281 938.011719 853.96875 969.511719 988.96875 1040.011719 C 1061.261719 1077.75 1092.25 1125.398438 1065.839844 1184.550781 C 1040.78125 1240.648438 980.339844 1272.128906 919.753906 1261.890625 C 692.855469 1223.550781 519.550781 1025.421875 520 787.679688 C 520.503906 523.230469 735.546875 308.609375 1000 308.609375 C 1264.679688 308.609375 1480 523.941406 1480 788.609375 C 1480 860.03125 1464.300781 927.859375 1436.191406 988.851562 C 1452.921875 996.808594 1464.230469 1003.578125 1471.390625 1008.378906 C 1474.058594 1002.648438 1476.660156 996.871094 1479.128906 991.03125 C 1506.25 926.898438 1520 858.800781 1520 788.609375 C 1520 718.421875 1506.25 650.320312 1479.128906 586.199219 Z M 1479.128906 586.199219 "/>
</clipPath>
<clipPath id="clip-2">
<path clip-rule="nonzero" d="M 1479.128906 586.199219 C 1452.941406 524.269531 1415.449219 468.660156 1367.699219 420.921875 C 1319.949219 373.171875 1264.339844 335.679688 1202.421875 309.480469 C 1138.300781 282.359375 1070.191406 268.609375 1000 268.609375 C 929.808594 268.609375 861.710938 282.359375 797.589844 309.480469 C 735.671875 335.679688 680.058594 373.171875 632.308594 420.921875 C 584.558594 468.660156 547.070312 524.269531 520.878906 586.199219 C 493.761719 650.320312 480 718.421875 480 788.609375 C 480 858.800781 493.761719 926.898438 520.878906 991.03125 C 547.070312 1052.949219 584.558594 1108.558594 632.308594 1156.308594 C 680.058594 1204.058594 735.671875 1241.550781 797.589844 1267.738281 C 846.199219 1288.300781 897.101562 1301.179688 949.460938 1306.199219 C 966.171875 1307.808594 983.019531 1308.609375 1000 1308.609375 C 1070.191406 1308.609375 1138.300781 1294.859375 1202.421875 1267.738281 C 1264.339844 1241.550781 1319.949219 1204.058594 1367.699219 1156.308594 C 1404.929688 1119.078125 1435.921875 1077.070312 1460.191406 1031.019531 C 1454.28125 1026.820312 1443.320312 1019.910156 1425.148438 1011.28125 C 1378.488281 989.101562 1284.289062 955.570312 1105.960938 927.511719 C 810.480469 881.019531 661.980469 881.019531 781.980469 812.019531 C 781.980469 812.019531 589.988281 815.019531 600.488281 876.519531 C 610.988281 938.011719 853.96875 969.511719 988.96875 1040.011719 C 1061.261719 1077.75 1092.25 1125.398438 1065.839844 1184.550781 C 1040.78125 1240.648438 980.339844 1272.128906 919.753906 1261.890625 C 692.855469 1223.550781 519.550781 1025.421875 520 787.679688 C 520.503906 523.230469 735.546875 308.609375 1000 308.609375 C 1264.679688 308.609375 1480 523.941406 1480 788.609375 C 1480 860.03125 1464.300781 927.859375 1436.191406 988.851562 C 1452.921875 996.808594 1464.230469 1003.578125 1471.390625 1008.378906 C 1474.058594 1002.648438 1476.660156 996.871094 1479.128906 991.03125 C 1506.25 926.898438 1520 858.800781 1520 788.609375 C 1520 718.421875 1506.25 650.320312 1479.128906 586.199219 "/>
</clipPath>
<linearGradient id="linear-pattern-0" gradientUnits="userSpaceOnUse" x1="-0.00444527" y1="0" x2="0.764786" y2="0" gradientTransform="matrix(0.00000006, 1352, -1352, 0.00000006, 1000, 274.62)">
<stop offset="0" stop-color="rgb(31.469727%, 66.647339%, 89.024353%)" stop-opacity="1"/>
<stop offset="0.0078125" stop-color="rgb(31.454468%, 66.604614%, 88.998413%)" stop-opacity="1"/>
<stop offset="0.0117188" stop-color="rgb(31.3797%, 66.400146%, 88.864136%)" stop-opacity="1"/>
<stop offset="0.015625" stop-color="rgb(31.321716%, 66.236877%, 88.755798%)" stop-opacity="1"/>
<stop offset="0.0195312" stop-color="rgb(31.263733%, 66.073608%, 88.647461%)" stop-opacity="1"/>
<stop offset="0.0234375" stop-color="rgb(31.204224%, 65.908813%, 88.539124%)" stop-opacity="1"/>
<stop offset="0.0273438" stop-color="rgb(31.144714%, 65.74707%, 88.432312%)" stop-opacity="1"/>
<stop offset="0.03125" stop-color="rgb(31.086731%, 65.583801%, 88.3255%)" stop-opacity="1"/>
<stop offset="0.0351562" stop-color="rgb(31.028748%, 65.422058%, 88.218689%)" stop-opacity="1"/>
<stop offset="0.0390625" stop-color="rgb(30.970764%, 65.260315%, 88.111877%)" stop-opacity="1"/>
<stop offset="0.0429688" stop-color="rgb(30.912781%, 65.098572%, 88.005066%)" stop-opacity="1"/>
<stop offset="0.046875" stop-color="rgb(30.854797%, 64.935303%, 87.896729%)" stop-opacity="1"/>
<stop offset="0.0507812" stop-color="rgb(30.796814%, 64.775085%, 87.791443%)" stop-opacity="1"/>
<stop offset="0.0546875" stop-color="rgb(30.738831%, 64.613342%, 87.684631%)" stop-opacity="1"/>
<stop offset="0.0585938" stop-color="rgb(30.680847%, 64.451599%, 87.57782%)" stop-opacity="1"/>
<stop offset="0.0625" stop-color="rgb(30.622864%, 64.291382%, 87.471008%)" stop-opacity="1"/>
<stop offset="0.0664062" stop-color="rgb(30.566406%, 64.131165%, 87.365723%)" stop-opacity="1"/>
<stop offset="0.0703125" stop-color="rgb(30.508423%, 63.969421%, 87.258911%)" stop-opacity="1"/>
<stop offset="0.0742188" stop-color="rgb(30.450439%, 63.809204%, 87.1521%)" stop-opacity="1"/>
<stop offset="0.078125" stop-color="rgb(30.393982%, 63.648987%, 87.045288%)" stop-opacity="1"/>
<stop offset="0.0820312" stop-color="rgb(30.337524%, 63.48877%, 86.940002%)" stop-opacity="1"/>
<stop offset="0.0859375" stop-color="rgb(30.279541%, 63.328552%, 86.833191%)" stop-opacity="1"/>
<stop offset="0.0898437" stop-color="rgb(30.223083%, 63.169861%, 86.727905%)" stop-opacity="1"/>
<stop offset="0.09375" stop-color="rgb(30.166626%, 63.011169%, 86.62262%)" stop-opacity="1"/>
<stop offset="0.0976562" stop-color="rgb(30.110168%, 62.850952%, 86.517334%)" stop-opacity="1"/>
<stop offset="0.101562" stop-color="rgb(30.052185%, 62.692261%, 86.410522%)" stop-opacity="1"/>
<stop offset="0.105469" stop-color="rgb(29.995728%, 62.535095%, 86.305237%)" stop-opacity="1"/>
<stop offset="0.109375" stop-color="rgb(29.940796%, 62.374878%, 86.199951%)" stop-opacity="1"/>
<stop offset="0.113281" stop-color="rgb(29.884338%, 62.217712%, 86.094666%)" stop-opacity="1"/>
<stop offset="0.117188" stop-color="rgb(29.826355%, 62.059021%, 85.98938%)" stop-opacity="1"/>
<stop offset="0.121094" stop-color="rgb(29.771423%, 61.901855%, 85.884094%)" stop-opacity="1"/>
<stop offset="0.125" stop-color="rgb(29.714966%, 61.743164%, 85.777283%)" stop-opacity="1"/>
<stop offset="0.128906" stop-color="rgb(29.660034%, 61.585999%, 85.673523%)" stop-opacity="1"/>
<stop offset="0.132812" stop-color="rgb(29.603577%, 61.428833%, 85.568237%)" stop-opacity="1"/>
<stop offset="0.136719" stop-color="rgb(29.548645%, 61.271667%, 85.464478%)" stop-opacity="1"/>
<stop offset="0.140625" stop-color="rgb(29.492188%, 61.116028%, 85.359192%)" stop-opacity="1"/>
<stop offset="0.144531" stop-color="rgb(29.437256%, 60.958862%, 85.253906%)" stop-opacity="1"/>
<stop offset="0.148438" stop-color="rgb(29.380798%, 60.801697%, 85.148621%)" stop-opacity="1"/>
<stop offset="0.152344" stop-color="rgb(29.325867%, 60.646057%, 85.044861%)" stop-opacity="1"/>
<stop offset="0.15625" stop-color="rgb(29.270935%, 60.488892%, 84.939575%)" stop-opacity="1"/>
<stop offset="0.160156" stop-color="rgb(29.216003%, 60.334778%, 84.835815%)" stop-opacity="1"/>
<stop offset="0.164062" stop-color="rgb(29.161072%, 60.177612%, 84.73053%)" stop-opacity="1"/>
<stop offset="0.167969" stop-color="rgb(29.10614%, 60.021973%, 84.62677%)" stop-opacity="1"/>
<stop offset="0.171875" stop-color="rgb(29.051208%, 59.867859%, 84.52301%)" stop-opacity="1"/>
<stop offset="0.175781" stop-color="rgb(28.997803%, 59.713745%, 84.41925%)" stop-opacity="1"/>
<stop offset="0.179688" stop-color="rgb(28.941345%, 59.558105%, 84.315491%)" stop-opacity="1"/>
<stop offset="0.183594" stop-color="rgb(28.887939%, 59.403992%, 84.211731%)" stop-opacity="1"/>
<stop offset="0.1875" stop-color="rgb(28.833008%, 59.248352%, 84.106445%)" stop-opacity="1"/>
<stop offset="0.191406" stop-color="rgb(28.779602%, 59.095764%, 84.004211%)" stop-opacity="1"/>
<stop offset="0.195312" stop-color="rgb(28.72467%, 58.94165%, 83.900452%)" stop-opacity="1"/>
<stop offset="0.199219" stop-color="rgb(28.669739%, 58.787537%, 83.796692%)" stop-opacity="1"/>
<stop offset="0.203125" stop-color="rgb(28.616333%, 58.633423%, 83.691406%)" stop-opacity="1"/>
<stop offset="0.207031" stop-color="rgb(28.562927%, 58.480835%, 83.589172%)" stop-opacity="1"/>
<stop offset="0.210937" stop-color="rgb(28.507996%, 58.326721%, 83.483887%)" stop-opacity="1"/>
<stop offset="0.214844" stop-color="rgb(28.45459%, 58.174133%, 83.381653%)" stop-opacity="1"/>
<stop offset="0.21875" stop-color="rgb(28.40271%, 58.021545%, 83.279419%)" stop-opacity="1"/>
<stop offset="0.222656" stop-color="rgb(28.349304%, 57.870483%, 83.175659%)" stop-opacity="1"/>
<stop offset="0.226562" stop-color="rgb(28.294373%, 57.71637%, 83.071899%)" stop-opacity="1"/>
<stop offset="0.230469" stop-color="rgb(28.242493%, 57.565308%, 82.969666%)" stop-opacity="1"/>
<stop offset="0.234375" stop-color="rgb(28.189087%, 57.41272%, 82.867432%)" stop-opacity="1"/>
<stop offset="0.238281" stop-color="rgb(28.135681%, 57.261658%, 82.765198%)" stop-opacity="1"/>
<stop offset="0.242188" stop-color="rgb(28.082275%, 57.110596%, 82.661438%)" stop-opacity="1"/>
<stop offset="0.246094" stop-color="rgb(28.030396%, 56.959534%, 82.559204%)" stop-opacity="1"/>
<stop offset="0.25" stop-color="rgb(27.97699%, 56.808472%, 82.45697%)" stop-opacity="1"/>
<stop offset="0.253906" stop-color="rgb(27.92511%, 56.65741%, 82.35321%)" stop-opacity="1"/>
<stop offset="0.257812" stop-color="rgb(27.871704%, 56.506348%, 82.250977%)" stop-opacity="1"/>
<stop offset="0.261719" stop-color="rgb(27.819824%, 56.356812%, 82.150269%)" stop-opacity="1"/>
<stop offset="0.265625" stop-color="rgb(27.767944%, 56.20575%, 82.046509%)" stop-opacity="1"/>
<stop offset="0.269531" stop-color="rgb(27.716064%, 56.056213%, 81.944275%)" stop-opacity="1"/>
<stop offset="0.273438" stop-color="rgb(27.662659%, 55.906677%, 81.842041%)" stop-opacity="1"/>
<stop offset="0.277344" stop-color="rgb(27.610779%, 55.757141%, 81.739807%)" stop-opacity="1"/>
<stop offset="0.28125" stop-color="rgb(27.558899%, 55.607605%, 81.637573%)" stop-opacity="1"/>
<stop offset="0.285156" stop-color="rgb(27.507019%, 55.458069%, 81.536865%)" stop-opacity="1"/>
<stop offset="0.289062" stop-color="rgb(27.455139%, 55.308533%, 81.434631%)" stop-opacity="1"/>
<stop offset="0.292969" stop-color="rgb(27.403259%, 55.160522%, 81.333923%)" stop-opacity="1"/>
<stop offset="0.296875" stop-color="rgb(27.349854%, 55.010986%, 81.230164%)" stop-opacity="1"/>
<stop offset="0.300781" stop-color="rgb(27.2995%, 54.864502%, 81.130981%)" stop-opacity="1"/>
<stop offset="0.304687" stop-color="rgb(27.249146%, 54.714966%, 81.028748%)" stop-opacity="1"/>
<stop offset="0.308594" stop-color="rgb(27.197266%, 54.566956%, 80.926514%)" stop-opacity="1"/>
<stop offset="0.3125" stop-color="rgb(27.145386%, 54.418945%, 80.825806%)" stop-opacity="1"/>
<stop offset="0.316406" stop-color="rgb(27.095032%, 54.272461%, 80.725098%)" stop-opacity="1"/>
<stop offset="0.320312" stop-color="rgb(27.044678%, 54.124451%, 80.62439%)" stop-opacity="1"/>
<stop offset="0.324219" stop-color="rgb(26.994324%, 53.977966%, 80.523682%)" stop-opacity="1"/>
<stop offset="0.328125" stop-color="rgb(26.942444%, 53.829956%, 80.421448%)" stop-opacity="1"/>
<stop offset="0.332031" stop-color="rgb(26.89209%, 53.683472%, 80.32074%)" stop-opacity="1"/>
<stop offset="0.335938" stop-color="rgb(26.841736%, 53.536987%, 80.220032%)" stop-opacity="1"/>
<stop offset="0.339844" stop-color="rgb(26.791382%, 53.392029%, 80.119324%)" stop-opacity="1"/>
<stop offset="0.34375" stop-color="rgb(26.741028%, 53.244019%, 80.018616%)" stop-opacity="1"/>
<stop offset="0.347656" stop-color="rgb(26.690674%, 53.09906%, 79.917908%)" stop-opacity="1"/>
<stop offset="0.351562" stop-color="rgb(26.64032%, 52.952576%, 79.8172%)" stop-opacity="1"/>
<stop offset="0.355469" stop-color="rgb(26.591492%, 52.809143%, 79.716492%)" stop-opacity="1"/>
<stop offset="0.359375" stop-color="rgb(26.539612%, 52.662659%, 79.61731%)" stop-opacity="1"/>
<stop offset="0.363281" stop-color="rgb(26.490784%, 52.5177%, 79.516602%)" stop-opacity="1"/>
<stop offset="0.367188" stop-color="rgb(26.441956%, 52.372742%, 79.415894%)" stop-opacity="1"/>
<stop offset="0.371094" stop-color="rgb(26.391602%, 52.227783%, 79.316711%)" stop-opacity="1"/>
<stop offset="0.375" stop-color="rgb(26.341248%, 52.084351%, 79.216003%)" stop-opacity="1"/>
<stop offset="0.378906" stop-color="rgb(26.292419%, 51.939392%, 79.116821%)" stop-opacity="1"/>
<stop offset="0.382812" stop-color="rgb(26.243591%, 51.795959%, 79.016113%)" stop-opacity="1"/>
<stop offset="0.386719" stop-color="rgb(26.194763%, 51.652527%, 78.916931%)" stop-opacity="1"/>
<stop offset="0.390625" stop-color="rgb(26.144409%, 51.507568%, 78.816223%)" stop-opacity="1"/>
<stop offset="0.394531" stop-color="rgb(26.095581%, 51.364136%, 78.717041%)" stop-opacity="1"/>
<stop offset="0.398437" stop-color="rgb(26.046753%, 51.222229%, 78.617859%)" stop-opacity="1"/>
<stop offset="0.402344" stop-color="rgb(25.999451%, 51.078796%, 78.518677%)" stop-opacity="1"/>
<stop offset="0.40625" stop-color="rgb(25.949097%, 50.935364%, 78.417969%)" stop-opacity="1"/>
<stop offset="0.410156" stop-color="rgb(25.901794%, 50.793457%, 78.318787%)" stop-opacity="1"/>
<stop offset="0.414062" stop-color="rgb(25.852966%, 50.650024%, 78.219604%)" stop-opacity="1"/>
<stop offset="0.417969" stop-color="rgb(25.804138%, 50.508118%, 78.120422%)" stop-opacity="1"/>
<stop offset="0.421875" stop-color="rgb(25.75531%, 50.366211%, 78.02124%)" stop-opacity="1"/>
<stop offset="0.425781" stop-color="rgb(25.708008%, 50.22583%, 77.923584%)" stop-opacity="1"/>
<stop offset="0.429688" stop-color="rgb(25.660706%, 50.082397%, 77.824402%)" stop-opacity="1"/>
<stop offset="0.433594" stop-color="rgb(25.611877%, 49.942017%, 77.72522%)" stop-opacity="1"/>
<stop offset="0.4375" stop-color="rgb(25.563049%, 49.80011%, 77.626038%)" stop-opacity="1"/>
<stop offset="0.441406" stop-color="rgb(25.515747%, 49.659729%, 77.528381%)" stop-opacity="1"/>
<stop offset="0.445312" stop-color="rgb(25.468445%, 49.519348%, 77.429199%)" stop-opacity="1"/>
<stop offset="0.449219" stop-color="rgb(25.421143%, 49.377441%, 77.330017%)" stop-opacity="1"/>
<stop offset="0.453125" stop-color="rgb(25.372314%, 49.237061%, 77.230835%)" stop-opacity="1"/>
<stop offset="0.457031" stop-color="rgb(25.326538%, 49.098206%, 77.133179%)" stop-opacity="1"/>
<stop offset="0.460938" stop-color="rgb(25.279236%, 48.957825%, 77.033997%)" stop-opacity="1"/>
<stop offset="0.464844" stop-color="rgb(25.231934%, 48.81897%, 76.937866%)" stop-opacity="1"/>
<stop offset="0.46875" stop-color="rgb(25.184631%, 48.678589%, 76.837158%)" stop-opacity="1"/>
<stop offset="0.472656" stop-color="rgb(25.137329%, 48.539734%, 76.739502%)" stop-opacity="1"/>
<stop offset="0.476563" stop-color="rgb(25.091553%, 48.399353%, 76.641846%)" stop-opacity="1"/>
<stop offset="0.480469" stop-color="rgb(25.04425%, 48.262024%, 76.544189%)" stop-opacity="1"/>
<stop offset="0.484375" stop-color="rgb(24.996948%, 48.121643%, 76.446533%)" stop-opacity="1"/>
<stop offset="0.488281" stop-color="rgb(24.951172%, 47.984314%, 76.348877%)" stop-opacity="1"/>
<stop offset="0.492188" stop-color="rgb(24.90387%, 47.845459%, 76.249695%)" stop-opacity="1"/>
<stop offset="0.496094" stop-color="rgb(24.858093%, 47.70813%, 76.153564%)" stop-opacity="1"/>
<stop offset="0.5" stop-color="rgb(24.810791%, 47.570801%, 76.055908%)" stop-opacity="1"/>
<stop offset="0.503906" stop-color="rgb(24.765015%, 47.431946%, 75.958252%)" stop-opacity="1"/>
<stop offset="0.507812" stop-color="rgb(24.719238%, 47.294617%, 75.860596%)" stop-opacity="1"/>
<stop offset="0.511719" stop-color="rgb(24.674988%, 47.157288%, 75.762939%)" stop-opacity="1"/>
<stop offset="0.515625" stop-color="rgb(24.627686%, 47.019958%, 75.666809%)" stop-opacity="1"/>
<stop offset="0.519531" stop-color="rgb(24.581909%, 46.884155%, 75.569153%)" stop-opacity="1"/>
<stop offset="0.523438" stop-color="rgb(24.536133%, 46.746826%, 75.469971%)" stop-opacity="1"/>
<stop offset="0.527344" stop-color="rgb(24.491882%, 46.609497%, 75.37384%)" stop-opacity="1"/>
<stop offset="0.53125" stop-color="rgb(24.44458%, 46.473694%, 75.276184%)" stop-opacity="1"/>
<stop offset="0.535156" stop-color="rgb(24.40033%, 46.337891%, 75.180054%)" stop-opacity="1"/>
<stop offset="0.539062" stop-color="rgb(24.354553%, 46.202087%, 75.083923%)" stop-opacity="1"/>
<stop offset="0.542969" stop-color="rgb(24.310303%, 46.066284%, 74.986267%)" stop-opacity="1"/>
<stop offset="0.546875" stop-color="rgb(24.264526%, 45.930481%, 74.890137%)" stop-opacity="1"/>
<stop offset="0.550781" stop-color="rgb(24.220276%, 45.796204%, 74.794006%)" stop-opacity="1"/>
<stop offset="0.554688" stop-color="rgb(24.176025%, 45.6604%, 74.69635%)" stop-opacity="1"/>
<stop offset="0.558594" stop-color="rgb(24.130249%, 45.526123%, 74.60022%)" stop-opacity="1"/>
<stop offset="0.5625" stop-color="rgb(24.084473%, 45.391846%, 74.504089%)" stop-opacity="1"/>
<stop offset="0.566406" stop-color="rgb(24.041748%, 45.257568%, 74.407959%)" stop-opacity="1"/>
<stop offset="0.570312" stop-color="rgb(23.997498%, 45.123291%, 74.311829%)" stop-opacity="1"/>
<stop offset="0.574219" stop-color="rgb(23.953247%, 44.989014%, 74.215698%)" stop-opacity="1"/>
<stop offset="0.578125" stop-color="rgb(23.907471%, 44.854736%, 74.118042%)" stop-opacity="1"/>
<stop offset="0.582031" stop-color="rgb(23.86322%, 44.720459%, 74.021912%)" stop-opacity="1"/>
<stop offset="0.585938" stop-color="rgb(23.81897%, 44.586182%, 73.925781%)" stop-opacity="1"/>
<stop offset="0.589844" stop-color="rgb(23.776245%, 44.454956%, 73.831177%)" stop-opacity="1"/>
<stop offset="0.59375" stop-color="rgb(23.731995%, 44.320679%, 73.735046%)" stop-opacity="1"/>
<stop offset="0.597656" stop-color="rgb(23.68927%, 44.187927%, 73.638916%)" stop-opacity="1"/>
<stop offset="0.601562" stop-color="rgb(23.643494%, 44.056702%, 73.542786%)" stop-opacity="1"/>
<stop offset="0.605469" stop-color="rgb(23.600769%, 43.92395%, 73.449707%)" stop-opacity="1"/>
<stop offset="0.609375" stop-color="rgb(23.558044%, 43.791199%, 73.352051%)" stop-opacity="1"/>
<stop offset="0.613281" stop-color="rgb(23.51532%, 43.659973%, 73.25592%)" stop-opacity="1"/>
<stop offset="0.617187" stop-color="rgb(23.471069%, 43.527222%, 73.161316%)" stop-opacity="1"/>
<stop offset="0.621094" stop-color="rgb(23.428345%, 43.395996%, 73.066711%)" stop-opacity="1"/>
<stop offset="0.625" stop-color="rgb(23.38562%, 43.264771%, 72.970581%)" stop-opacity="1"/>
<stop offset="0.628906" stop-color="rgb(23.342896%, 43.133545%, 72.875977%)" stop-opacity="1"/>
<stop offset="0.632812" stop-color="rgb(23.298645%, 43.002319%, 72.779846%)" stop-opacity="1"/>
<stop offset="0.636719" stop-color="rgb(23.257446%, 42.87262%, 72.685242%)" stop-opacity="1"/>
<stop offset="0.640625" stop-color="rgb(23.214722%, 42.741394%, 72.590637%)" stop-opacity="1"/>
<stop offset="0.644531" stop-color="rgb(23.171997%, 42.611694%, 72.496033%)" stop-opacity="1"/>
<stop offset="0.648437" stop-color="rgb(23.129272%, 42.480469%, 72.399902%)" stop-opacity="1"/>
<stop offset="0.652344" stop-color="rgb(23.086548%, 42.350769%, 72.305298%)" stop-opacity="1"/>
<stop offset="0.65625" stop-color="rgb(23.045349%, 42.221069%, 72.210693%)" stop-opacity="1"/>
<stop offset="0.660156" stop-color="rgb(23.00415%, 42.09137%, 72.117615%)" stop-opacity="1"/>
<stop offset="0.664062" stop-color="rgb(22.961426%, 41.96167%, 72.021484%)" stop-opacity="1"/>
<stop offset="0.667969" stop-color="rgb(22.918701%, 41.83197%, 71.92688%)" stop-opacity="1"/>
<stop offset="0.671875" stop-color="rgb(22.877502%, 41.703796%, 71.832275%)" stop-opacity="1"/>
<stop offset="0.675781" stop-color="rgb(22.836304%, 41.575623%, 71.739197%)" stop-opacity="1"/>
<stop offset="0.679687" stop-color="rgb(22.793579%, 41.447449%, 71.644592%)" stop-opacity="1"/>
<stop offset="0.683594" stop-color="rgb(22.75238%, 41.319275%, 71.551514%)" stop-opacity="1"/>
<stop offset="0.6875" stop-color="rgb(22.711182%, 41.189575%, 71.456909%)" stop-opacity="1"/>
<stop offset="0.691406" stop-color="rgb(22.671509%, 41.062927%, 71.363831%)" stop-opacity="1"/>
<stop offset="0.695312" stop-color="rgb(22.628784%, 40.934753%, 71.269226%)" stop-opacity="1"/>
<stop offset="0.699219" stop-color="rgb(22.587585%, 40.80658%, 71.174622%)" stop-opacity="1"/>
<stop offset="0.703125" stop-color="rgb(22.547913%, 40.678406%, 71.080017%)" stop-opacity="1"/>
<stop offset="0.707031" stop-color="rgb(22.506714%, 40.551758%, 70.986938%)" stop-opacity="1"/>
<stop offset="0.710937" stop-color="rgb(22.465515%, 40.42511%, 70.892334%)" stop-opacity="1"/>
<stop offset="0.714844" stop-color="rgb(22.424316%, 40.298462%, 70.800781%)" stop-opacity="1"/>
<stop offset="0.71875" stop-color="rgb(22.384644%, 40.171814%, 70.706177%)" stop-opacity="1"/>
<stop offset="0.722656" stop-color="rgb(22.343445%, 40.046692%, 70.613098%)" stop-opacity="1"/>
<stop offset="0.726562" stop-color="rgb(22.302246%, 39.918518%, 70.518494%)" stop-opacity="1"/>
<stop offset="0.730469" stop-color="rgb(22.262573%, 39.793396%, 70.425415%)" stop-opacity="1"/>
<stop offset="0.734375" stop-color="rgb(22.2229%, 39.668274%, 70.332336%)" stop-opacity="1"/>
<stop offset="0.738281" stop-color="rgb(22.183228%, 39.543152%, 70.239258%)" stop-opacity="1"/>
<stop offset="0.742188" stop-color="rgb(22.142029%, 39.41803%, 70.146179%)" stop-opacity="1"/>
<stop offset="0.746094" stop-color="rgb(22.103882%, 39.292908%, 70.054626%)" stop-opacity="1"/>
<stop offset="0.75" stop-color="rgb(22.064209%, 39.167786%, 69.960022%)" stop-opacity="1"/>
<stop offset="0.753906" stop-color="rgb(22.024536%, 39.042664%, 69.866943%)" stop-opacity="1"/>
<stop offset="0.757812" stop-color="rgb(21.983337%, 38.917542%, 69.773865%)" stop-opacity="1"/>
<stop offset="0.761719" stop-color="rgb(21.94519%, 38.793945%, 69.682312%)" stop-opacity="1"/>
<stop offset="0.765625" stop-color="rgb(21.905518%, 38.668823%, 69.589233%)" stop-opacity="1"/>
<stop offset="0.769531" stop-color="rgb(21.867371%, 38.545227%, 69.496155%)" stop-opacity="1"/>
<stop offset="0.773438" stop-color="rgb(21.827698%, 38.421631%, 69.403076%)" stop-opacity="1"/>
<stop offset="0.777344" stop-color="rgb(21.788025%, 38.298035%, 69.309998%)" stop-opacity="1"/>
<stop offset="0.78125" stop-color="rgb(21.749878%, 38.175964%, 69.218445%)" stop-opacity="1"/>
<stop offset="0.785156" stop-color="rgb(21.711731%, 38.052368%, 69.126892%)" stop-opacity="1"/>
<stop offset="0.789062" stop-color="rgb(21.672058%, 37.928772%, 69.033813%)" stop-opacity="1"/>
<stop offset="0.792969" stop-color="rgb(21.633911%, 37.806702%, 68.942261%)" stop-opacity="1"/>
<stop offset="0.796875" stop-color="rgb(21.594238%, 37.684631%, 68.849182%)" stop-opacity="1"/>
<stop offset="0.800781" stop-color="rgb(21.557617%, 37.562561%, 68.759155%)" stop-opacity="1"/>
<stop offset="0.804688" stop-color="rgb(21.517944%, 37.438965%, 68.664551%)" stop-opacity="1"/>
<stop offset="0.808594" stop-color="rgb(21.479797%, 37.316895%, 68.572998%)" stop-opacity="1"/>
<stop offset="0.8125" stop-color="rgb(21.44165%, 37.19635%, 68.481445%)" stop-opacity="1"/>
<stop offset="0.816406" stop-color="rgb(21.405029%, 37.07428%, 68.389893%)" stop-opacity="1"/>
<stop offset="0.820312" stop-color="rgb(21.365356%, 36.953735%, 68.29834%)" stop-opacity="1"/>
<stop offset="0.824219" stop-color="rgb(21.328735%, 36.833191%, 68.206787%)" stop-opacity="1"/>
<stop offset="0.828125" stop-color="rgb(21.290588%, 36.711121%, 68.115234%)" stop-opacity="1"/>
<stop offset="0.832031" stop-color="rgb(21.253967%, 36.590576%, 68.023682%)" stop-opacity="1"/>
<stop offset="0.835938" stop-color="rgb(21.214294%, 36.470032%, 67.930603%)" stop-opacity="1"/>
<stop offset="0.839844" stop-color="rgb(21.177673%, 36.351013%, 67.840576%)" stop-opacity="1"/>
<stop offset="0.84375" stop-color="rgb(21.141052%, 36.228943%, 67.749023%)" stop-opacity="1"/>
<stop offset="0.847656" stop-color="rgb(21.104431%, 36.109924%, 67.657471%)" stop-opacity="1"/>
<stop offset="0.851563" stop-color="rgb(21.066284%, 35.98938%, 67.565918%)" stop-opacity="1"/>
<stop offset="0.855469" stop-color="rgb(21.029663%, 35.870361%, 67.475891%)" stop-opacity="1"/>
<stop offset="0.859375" stop-color="rgb(20.993042%, 35.751343%, 67.384338%)" stop-opacity="1"/>
<stop offset="0.863281" stop-color="rgb(20.956421%, 35.632324%, 67.292786%)" stop-opacity="1"/>
<stop offset="0.867188" stop-color="rgb(20.918274%, 35.513306%, 67.201233%)" stop-opacity="1"/>
<stop offset="0.871094" stop-color="rgb(20.883179%, 35.395813%, 67.111206%)" stop-opacity="1"/>
<stop offset="0.875" stop-color="rgb(20.845032%, 35.276794%, 67.021179%)" stop-opacity="1"/>
<stop offset="0.878906" stop-color="rgb(20.809937%, 35.157776%, 66.929626%)" stop-opacity="1"/>
<stop offset="0.882812" stop-color="rgb(20.773315%, 35.040283%, 66.8396%)" stop-opacity="1"/>
<stop offset="0.886719" stop-color="rgb(20.73822%, 34.922791%, 66.749573%)" stop-opacity="1"/>
<stop offset="0.890625" stop-color="rgb(20.700073%, 34.805298%, 66.65802%)" stop-opacity="1"/>
<stop offset="0.894531" stop-color="rgb(20.664978%, 34.687805%, 66.566467%)" stop-opacity="1"/>
<stop offset="0.898437" stop-color="rgb(20.629883%, 34.570312%, 66.47644%)" stop-opacity="1"/>
<stop offset="0.902344" stop-color="rgb(20.593262%, 34.45282%, 66.386414%)" stop-opacity="1"/>
<stop offset="0.90625" stop-color="rgb(20.556641%, 34.335327%, 66.294861%)" stop-opacity="1"/>
<stop offset="0.910156" stop-color="rgb(20.523071%, 34.21936%, 66.20636%)" stop-opacity="1"/>
<stop offset="0.914062" stop-color="rgb(20.48645%, 34.103394%, 66.114807%)" stop-opacity="1"/>
<stop offset="0.917969" stop-color="rgb(20.451355%, 33.985901%, 66.02478%)" stop-opacity="1"/>
<stop offset="0.921875" stop-color="rgb(20.41626%, 33.869934%, 65.934753%)" stop-opacity="1"/>
<stop offset="0.925781" stop-color="rgb(20.381165%, 33.755493%, 65.846252%)" stop-opacity="1"/>
<stop offset="0.929687" stop-color="rgb(20.346069%, 33.639526%, 65.756226%)" stop-opacity="1"/>
<stop offset="0.933594" stop-color="rgb(20.3125%, 33.52356%, 65.666199%)" stop-opacity="1"/>
<stop offset="0.9375" stop-color="rgb(20.275879%, 33.407593%, 65.576172%)" stop-opacity="1"/>
<stop offset="0.941406" stop-color="rgb(20.24231%, 33.293152%, 65.487671%)" stop-opacity="1"/>
<stop offset="0.945312" stop-color="rgb(20.207214%, 33.178711%, 65.396118%)" stop-opacity="1"/>
<stop offset="0.949219" stop-color="rgb(20.173645%, 33.062744%, 65.307617%)" stop-opacity="1"/>
<stop offset="0.953125" stop-color="rgb(20.137024%, 32.948303%, 65.21759%)" stop-opacity="1"/>
<stop offset="0.957031" stop-color="rgb(20.103455%, 32.835388%, 65.127563%)" stop-opacity="1"/>
<stop offset="0.960938" stop-color="rgb(20.069885%, 32.720947%, 65.039062%)" stop-opacity="1"/>
<stop offset="0.964844" stop-color="rgb(20.036316%, 32.608032%, 64.950562%)" stop-opacity="1"/>
<stop offset="0.96875" stop-color="rgb(20.001221%, 32.493591%, 64.860535%)" stop-opacity="1"/>
<stop offset="0.972656" stop-color="rgb(19.967651%, 32.37915%, 64.770508%)" stop-opacity="1"/>
<stop offset="0.976562" stop-color="rgb(19.934082%, 32.266235%, 64.682007%)" stop-opacity="1"/>
<stop offset="0.980469" stop-color="rgb(19.900513%, 32.15332%, 64.593506%)" stop-opacity="1"/>
<stop offset="0.984375" stop-color="rgb(19.866943%, 32.040405%, 64.503479%)" stop-opacity="1"/>
<stop offset="0.988281" stop-color="rgb(19.833374%, 31.92749%, 64.414978%)" stop-opacity="1"/>
<stop offset="0.992188" stop-color="rgb(19.799805%, 31.814575%, 64.326477%)" stop-opacity="1"/>
<stop offset="0.996094" stop-color="rgb(19.767761%, 31.703186%, 64.237976%)" stop-opacity="1"/>
<stop offset="1" stop-color="rgb(19.732666%, 31.591797%, 64.147949%)" stop-opacity="1"/>
</linearGradient>
</defs>
<rect x="-200" y="-200" width="2400" height="2400" fill="rgb(100%, 100%, 100%)" fill-opacity="1"/>
<path fill-rule="nonzero" fill="rgb(13.729858%, 12.159729%, 12.548828%)" fill-opacity="1" d="M 418.003906 1582.398438 L 450.757812 1582.398438 C 471.996094 1582.398438 485.257812 1581.511719 490.546875 1579.710938 C 495.828125 1577.921875 499.96875 1574.828125 502.960938 1570.441406 C 505.953125 1566.050781 507.449219 1560.570312 507.449219 1553.980469 C 507.449219 1546.609375 505.476562 1540.648438 501.539062 1536.109375 C 497.597656 1531.570312 492.039062 1528.710938 484.863281 1527.511719 C 481.273438 1527.011719 470.503906 1526.761719 452.554688 1526.761719 L 418.003906 1526.761719 Z M 373.726562 1708.949219 L 373.726562 1489.671875 L 466.914062 1489.671875 C 490.34375 1489.671875 507.371094 1491.640625 517.992188 1495.578125 C 528.613281 1499.519531 537.113281 1506.519531 543.496094 1516.589844 C 549.875 1526.660156 553.066406 1538.179688 553.066406 1551.140625 C 553.066406 1567.601562 548.230469 1581.179688 538.558594 1591.898438 C 528.886719 1602.621094 514.425781 1609.378906 495.183594 1612.171875 C 504.753906 1617.761719 512.65625 1623.890625 518.890625 1630.570312 C 525.121094 1637.25 533.523438 1649.109375 544.09375 1666.171875 L 570.867188 1708.949219 L 517.917969 1708.949219 L 485.910156 1661.230469 C 474.539062 1644.179688 466.761719 1633.441406 462.574219 1629 C 458.386719 1624.558594 453.949219 1621.519531 449.261719 1619.871094 C 444.574219 1618.230469 437.148438 1617.398438 426.976562 1617.398438 L 418.003906 1617.398438 L 418.003906 1708.949219 L 373.726562 1708.949219 "/>
<path fill-rule="nonzero" fill="rgb(13.729858%, 12.159729%, 12.548828%)" fill-opacity="1" d="M 678.5625 1708.949219 L 678.5625 1489.671875 L 722.835938 1489.671875 L 722.835938 1708.949219 L 678.5625 1708.949219 "/>
<path fill-rule="nonzero" fill="rgb(13.729858%, 12.159729%, 12.548828%)" fill-opacity="1" d="M 906.066406 1708.949219 L 827.6875 1489.671875 L 875.703125 1489.671875 L 931.195312 1651.960938 L 984.894531 1489.671875 L 1031.859375 1489.671875 L 953.332031 1708.949219 L 906.066406 1708.949219 "/>
<path fill-rule="nonzero" fill="rgb(13.729858%, 12.159729%, 12.548828%)" fill-opacity="1" d="M 1139.550781 1708.949219 L 1139.550781 1489.671875 L 1302.140625 1489.671875 L 1302.140625 1526.761719 L 1183.828125 1526.761719 L 1183.828125 1575.371094 L 1293.921875 1575.371094 L 1293.921875 1612.320312 L 1183.828125 1612.320312 L 1183.828125 1672 L 1306.328125 1672 L 1306.328125 1708.949219 L 1139.550781 1708.949219 "/>
<path fill-rule="nonzero" fill="rgb(13.729858%, 12.159729%, 12.548828%)" fill-opacity="1" d="M 1473.410156 1582.398438 L 1506.160156 1582.398438 C 1527.398438 1582.398438 1540.660156 1581.511719 1545.949219 1579.710938 C 1551.230469 1577.921875 1555.371094 1574.828125 1558.371094 1570.441406 C 1561.359375 1566.050781 1562.851562 1560.570312 1562.851562 1553.980469 C 1562.851562 1546.609375 1560.878906 1540.648438 1556.941406 1536.109375 C 1553 1531.570312 1547.449219 1528.710938 1540.269531 1527.511719 C 1536.679688 1527.011719 1525.910156 1526.761719 1507.960938 1526.761719 L 1473.410156 1526.761719 Z M 1429.128906 1708.949219 L 1429.128906 1489.671875 L 1522.320312 1489.671875 C 1545.75 1489.671875 1562.78125 1491.640625 1573.398438 1495.578125 C 1584.019531 1499.519531 1592.519531 1506.519531 1598.898438 1516.589844 C 1605.28125 1526.660156 1608.46875 1538.179688 1608.46875 1551.140625 C 1608.46875 1567.601562 1603.640625 1581.179688 1593.960938 1591.898438 C 1584.289062 1602.621094 1569.828125 1609.378906 1550.589844 1612.171875 C 1560.160156 1617.761719 1568.058594 1623.890625 1574.300781 1630.570312 C 1580.53125 1637.25 1588.929688 1649.109375 1599.5 1666.171875 L 1626.269531 1708.949219 L 1573.320312 1708.949219 L 1541.308594 1661.230469 C 1529.949219 1644.179688 1522.171875 1633.441406 1517.980469 1629 C 1513.789062 1624.558594 1509.351562 1621.519531 1504.671875 1619.871094 C 1499.980469 1618.230469 1492.550781 1617.398438 1482.378906 1617.398438 L 1473.410156 1617.398438 L 1473.410156 1708.949219 L 1429.128906 1708.949219 "/>
<path fill-rule="nonzero" fill="rgb(13.729858%, 12.159729%, 12.548828%)" fill-opacity="1" d="M 609.589844 1827.75 L 597.960938 1827.75 L 602.558594 1805.691406 L 586.949219 1771.109375 L 599.351562 1771.109375 L 606.382812 1787.109375 C 608.054688 1790.949219 609.175781 1793.710938 609.742188 1795.410156 C 610.695312 1793.738281 611.804688 1791.960938 613.066406 1790.078125 L 618.433594 1782.589844 L 626.433594 1771.109375 L 639.953125 1771.109375 L 613.992188 1806.769531 L 609.589844 1827.75 "/>
<path fill-rule="nonzero" fill="rgb(13.729858%, 12.159729%, 12.548828%)" fill-opacity="1" d="M 669.625 1805.300781 C 669.625 1809.191406 670.808594 1812.449219 673.179688 1815.078125 C 675.546875 1817.710938 678.664062 1819.019531 682.527344 1819.019531 C 685.671875 1819.019531 688.691406 1817.980469 691.589844 1815.910156 C 694.484375 1813.839844 696.882812 1810.691406 698.773438 1806.480469 C 700.667969 1802.269531 701.613281 1798.171875 701.613281 1794.179688 C 701.613281 1789.71875 700.414062 1786.230469 698.019531 1783.691406 C 695.625 1781.148438 692.574219 1779.878906 688.863281 1779.878906 C 683.171875 1779.878906 678.542969 1782.539062 674.976562 1787.839844 C 671.40625 1793.148438 669.625 1798.96875 669.625 1805.300781 Z M 658.113281 1805.539062 C 658.113281 1802.191406 658.613281 1798.660156 659.617188 1794.949219 C 660.933594 1789.980469 662.933594 1785.671875 665.625 1782.011719 C 668.316406 1778.351562 671.710938 1775.460938 675.804688 1773.339844 C 679.902344 1771.210938 684.5625 1770.148438 689.789062 1770.148438 C 696.796875 1770.148438 702.457031 1772.328125 706.769531 1776.679688 C 711.085938 1781.03125 713.242188 1786.800781 713.242188 1793.988281 C 713.242188 1799.960938 711.839844 1805.738281 709.03125 1811.328125 C 706.222656 1816.921875 702.410156 1821.21875 697.59375 1824.238281 C 692.777344 1827.25 687.332031 1828.761719 681.253906 1828.761719 C 675.972656 1828.761719 671.542969 1827.558594 667.964844 1825.160156 C 664.382812 1822.769531 661.847656 1819.800781 660.351562 1816.261719 C 658.859375 1812.71875 658.113281 1809.140625 658.113281 1805.539062 "/>
<path fill-rule="nonzero" fill="rgb(13.729858%, 12.159729%, 12.548828%)" fill-opacity="1" d="M 749.828125 1771.109375 L 761.457031 1771.109375 L 755.042969 1801.871094 L 753.460938 1809.441406 C 753.355469 1810.078125 753.304688 1810.691406 753.304688 1811.25 C 753.304688 1813.5 754.121094 1815.339844 755.757812 1816.800781 C 757.394531 1818.25 759.769531 1818.980469 762.886719 1818.980469 C 765.691406 1818.980469 768.011719 1818.449219 769.839844 1817.398438 C 771.667969 1816.339844 773.085938 1814.769531 774.089844 1812.679688 C 775.09375 1810.601562 776.109375 1807.058594 777.140625 1802.058594 L 783.632812 1771.109375 L 795.261719 1771.109375 L 788.808594 1802.101562 C 787.445312 1808.609375 785.871094 1813.601562 784.097656 1817.050781 C 782.320312 1820.5 779.628906 1823.308594 776.023438 1825.46875 C 772.414062 1827.640625 767.855469 1828.71875 762.34375 1828.71875 C 755.753906 1828.71875 750.703125 1827.101562 747.199219 1823.871094 C 743.699219 1820.640625 741.945312 1816.480469 741.945312 1811.410156 C 741.945312 1810.351562 742.035156 1809.210938 742.21875 1807.96875 C 742.320312 1807.148438 742.769531 1804.800781 743.570312 1800.941406 L 749.828125 1771.109375 "/>
<path fill-rule="nonzero" fill="rgb(13.729858%, 12.159729%, 12.548828%)" fill-opacity="1" d="M 835.671875 1795.800781 L 841.851562 1795.800781 C 848.113281 1795.800781 852.265625 1795.429688 854.3125 1794.679688 C 856.359375 1793.929688 857.964844 1792.761719 859.121094 1791.171875 C 860.28125 1789.570312 860.859375 1787.890625 860.859375 1786.140625 C 860.859375 1784.078125 860.023438 1782.539062 858.351562 1781.511719 C 857.320312 1780.890625 855.089844 1780.578125 851.664062 1780.578125 L 838.839844 1780.578125 Z M 828.988281 1827.75 L 817.320312 1827.75 L 829.179688 1771.109375 L 854.332031 1771.109375 C 858.660156 1771.109375 862.027344 1771.558594 864.433594 1772.449219 C 866.84375 1773.339844 868.785156 1774.960938 870.269531 1777.328125 C 871.75 1779.699219 872.488281 1782.578125 872.488281 1785.949219 C 872.488281 1790.769531 871.046875 1794.738281 868.164062 1797.871094 C 865.277344 1801 860.910156 1802.941406 855.066406 1803.679688 C 856.558594 1805.019531 857.964844 1806.789062 859.277344 1808.980469 C 861.878906 1813.410156 864.777344 1819.660156 867.96875 1827.75 L 855.453125 1827.75 C 854.449219 1824.558594 852.476562 1819.570312 849.539062 1812.800781 C 847.945312 1809.140625 846.242188 1806.679688 844.441406 1805.421875 C 843.335938 1804.671875 841.402344 1804.300781 838.648438 1804.300781 L 833.894531 1804.300781 L 828.988281 1827.75 "/>
<path fill-rule="nonzero" fill="rgb(13.729858%, 12.159729%, 12.548828%)" fill-opacity="1" d="M 964.824219 1827.75 L 953.15625 1827.75 L 963.046875 1780.578125 L 946.433594 1780.578125 L 948.40625 1771.109375 L 993.027344 1771.109375 L 991.054688 1780.578125 L 974.675781 1780.578125 L 964.824219 1827.75 "/>
<path fill-rule="nonzero" fill="rgb(13.729858%, 12.159729%, 12.548828%)" fill-opacity="1" d="M 1043.210938 1805.808594 L 1039.929688 1783.011719 L 1026.25 1805.808594 Z M 1044.640625 1815.230469 L 1022.199219 1815.230469 L 1015.398438 1827.75 L 1003.421875 1827.75 L 1035.449219 1771.109375 L 1048.390625 1771.109375 L 1057.578125 1827.75 L 1046.53125 1827.75 L 1044.640625 1815.230469 "/>
<path fill-rule="nonzero" fill="rgb(13.729858%, 12.159729%, 12.548828%)" fill-opacity="1" d="M 1115.261719 1797.5 L 1140.609375 1797.5 L 1135.511719 1821.800781 C 1132.519531 1823.730469 1128.859375 1825.371094 1124.519531 1826.710938 C 1120.179688 1828.050781 1115.75 1828.71875 1111.25 1828.71875 C 1104.238281 1828.71875 1098.871094 1827.128906 1095.140625 1823.960938 C 1090.039062 1819.640625 1087.488281 1813.371094 1087.488281 1805.148438 C 1087.488281 1799.640625 1088.578125 1794.359375 1090.769531 1789.308594 C 1093.398438 1783.230469 1097.128906 1778.519531 1101.96875 1775.171875 C 1106.820312 1771.820312 1112.511719 1770.148438 1119.050781 1770.148438 C 1125.589844 1770.148438 1130.839844 1771.671875 1134.789062 1774.710938 C 1138.75 1777.75 1141.371094 1782.179688 1142.648438 1788 L 1131.800781 1789.230469 C 1130.851562 1786.039062 1129.308594 1783.628906 1127.179688 1782.011719 C 1125.058594 1780.390625 1122.378906 1779.578125 1119.171875 1779.578125 C 1115.398438 1779.578125 1111.949219 1780.550781 1108.808594 1782.511719 C 1105.671875 1784.46875 1103.210938 1787.488281 1101.429688 1791.589844 C 1099.660156 1795.691406 1098.769531 1800.148438 1098.769531 1805 C 1098.769531 1809.761719 1099.851562 1813.28125 1102.011719 1815.558594 C 1104.179688 1817.839844 1107.339844 1818.980469 1111.519531 1818.980469 C 1114.011719 1818.980469 1116.578125 1818.628906 1119.199219 1817.921875 C 1121.828125 1817.210938 1124.101562 1816.371094 1126 1815.390625 L 1127.738281 1806.96875 L 1113.289062 1806.96875 L 1115.261719 1797.5 "/>
<path fill-rule="nonzero" fill="rgb(13.729858%, 12.159729%, 12.548828%)" fill-opacity="1" d="M 1167.570312 1827.75 L 1179.429688 1771.109375 L 1191.058594 1771.109375 L 1181.210938 1818.289062 L 1210.03125 1818.289062 L 1208.058594 1827.75 L 1167.570312 1827.75 "/>
<path fill-rule="nonzero" fill="rgb(13.729858%, 12.159729%, 12.548828%)" fill-opacity="1" d="M 1235.648438 1827.75 L 1247.511719 1771.109375 L 1259.140625 1771.109375 L 1247.308594 1827.75 L 1235.648438 1827.75 "/>
<path fill-rule="nonzero" fill="rgb(13.729858%, 12.159729%, 12.548828%)" fill-opacity="1" d="M 1325.390625 1827.75 L 1314.539062 1827.75 L 1299.238281 1789.699219 L 1291.28125 1827.75 L 1280.421875 1827.75 L 1292.238281 1771.109375 L 1303.140625 1771.109375 L 1318.480469 1809.011719 L 1326.398438 1771.109375 L 1337.210938 1771.109375 L 1325.390625 1827.75 "/>
<path fill-rule="nonzero" fill="rgb(13.729858%, 12.159729%, 12.548828%)" fill-opacity="1" d="M 1359.230469 1827.75 L 1371.058594 1771.109375 L 1413.050781 1771.109375 L 1411.078125 1780.578125 L 1380.75 1780.578125 L 1378.050781 1793.441406 L 1407.371094 1793.441406 L 1405.398438 1802.910156 L 1376.078125 1802.910156 L 1372.519531 1818.289062 L 1405.480469 1818.289062 L 1403.46875 1827.75 L 1359.230469 1827.75 "/>
<g clip-path="url(#clip-0)">
<g clip-path="url(#clip-1)">
<g clip-path="url(#clip-2)">
<path fill-rule="nonzero" fill="url(#linear-pattern-0)" d="M 1520 268.609375 L 480 268.609375 L 480 1308.609375 L 1520 1308.609375 Z M 1520 268.609375 "/>
</g>
</g>
</g>
</svg>
